<svg xmlns="http://www.w3.org/2000/svg" version="1.1" xmlns:xlink="http://www.w3.org/1999/xlink" xmlns:svgjs="http://svgjs.dev/svgjs" viewBox="0 0 1920 1080"><rect width="1920" height="1080" fill="#bc50f7"></rect><g transform="matrix(0.8131727983645296,0.8131727983645295,-0.8131727983645295,0.8131727983645296,611.4389734452075,-649.1675850067463)"><path d="M0,-1080C6.880196647628348,-974.6775785924843,49.914501289039094,-659.489621166399,41.28117988577009,-448.06547155490597C32.64785848250108,-236.64132194341295,-57.865121873121545,-20.731771205888464,-51.79992841961406,188.54489766895819C-45.73473496610658,397.8215665438048,81.32794695727561,603.528586007882,77.672340606815,807.5945416941738C74.01673425635438,1011.6604973804656,-60.78817642124191,1187.5397220690713,-73.73356652237774,1412.940631786709C-86.67895662351357,1638.3415415043467,-12.288927753729624,2035.4901052977848,0,2160L 1920 2160 L 1920 -1080 Z" fill="url(&quot;#SvgjsLinearGradient1206&quot;)"></path><path d="M192,-1080C188.57239258010307,-975.1546739038816,155.77903977645917,-621.1282506151389,171.43435548061842,-450.92804342329015C187.08967118477767,-280.7278362314414,275.62727905650036,-209.03199335826565,285.9318942249555,-58.79875684890759C296.23650939341064,91.43447966045049,251.68931179926315,257.54247951617356,233.2620464913491,450.4713756328582C214.83478118343507,643.4002717495429,167.28896190643547,911.5847647043131,175.3683023774712,1098.7746198512002C183.44764284850692,1285.9644749980873,278.96613971380856,1396.7396098227143,281.7380893175634,1573.610506514181C284.5100389213182,1750.4814032056477,206.9563482195939,2062.2684177523633,192,2160L 1920 2160 L 1920 -1080 Z" fill="url(&quot;#SvgjsLinearGradient1207&quot;)"></path><path d="M384,-1080C372.0963268962515,-973.8678630916446,300.8405321719065,-610.4829085637758,312.57796137750927,-443.2071785498677C324.31539058311205,-275.9314485359596,442.8115079905779,-238.4278665526314,454.4245752336168,-76.34561991655153C466.03764247665566,85.73662671952835,384.94563900160375,334.902782929395,382.2563648357425,529.2863012666115C379.5670906698812,723.669819603828,422.6487505061173,914.3103796274264,438.2889302384491,1089.955490106748C453.92910997078087,1265.6006005860695,485.1455982694746,1404.8162124936655,476.0974432297331,1583.1569641425408C467.04928818999156,1761.497715791416,399.34957387162217,2063.8594940237567,384,2160L 1920 2160 L 1920 -1080 Z" fill="url(&quot;#SvgjsLinearGradient1208&quot;)"></path><path d="M576,-1080C563.5664679081974,-1002.6285706196059,511.4953982698548,-799.5596713609443,501.3988074491848,-615.7714237176353C491.3022166285148,-431.98317607432637,507.29921913680704,-170.3749200595289,515.4204550759803,22.72948585985384C523.5416910151534,215.83389177923658,530.7718330920791,351.24543691069516,550.1262230842242,542.855011798661C569.4806130763693,734.464586686627,619.2967063968539,984.7595930753998,631.5467950288511,1172.386935187649C643.7968836608483,1360.0142772998981,632.8845540476827,1504.016887003431,623.6267548762075,1668.6190644721562C614.3689557047323,1833.2212419408813,583.9377924793679,2078.103177412026,576,2160L 1920 2160 L 1920 -1080 Z" fill="url(&quot;#SvgjsLinearGradient1209&quot;)"></path><path d="M768,-1080C782.623798459613,-1029.154637207003,870.1107292463091,-904.7230412249661,855.7427907576782,-774.9278232420172C841.3748522690473,-645.1326052590683,704.5010439741652,-441.1413780749265,681.7923690682147,-301.2286921023068C659.0836941622642,-161.3160061296871,694.0022434299271,-71.40301230608564,719.4907413219755,64.54829259370108C744.9792392140239,200.49959749348778,831.1388194116565,362.8381314568911,834.7233564205053,514.4791372964136C838.3078934293541,666.120143135936,743.2864142193436,828.1726733904964,740.9979633750681,974.3943276308356C738.7095125307927,1120.6159818711749,801.7513999742159,1249.674141150494,820.9926513548528,1391.8090627384495C840.2339027354897,1533.943984326405,865.2775802180315,1699.172034281643,856.4454716588893,1827.203857158568C847.6133630997472,1955.2356800354933,782.7409119431483,2104.5339761930945,768,2160L 1920 2160 L 1920 -1080 Z" fill="url(&quot;#SvgjsLinearGradient1210&quot;)"></path><path d="M960,-1080C958.0561821615003,-1018.3686229604901,936.1058390043611,-849.2724839524653,948.3370929690018,-710.2117377629409C960.5683469336425,-571.1509915734164,1016.1142173992295,-398.6698747913527,1033.3875237878444,-245.63552286285287C1050.6608301764593,-92.60117093435304,1062.2957719320739,46.11915059231893,1051.9769313006914,207.99437380805813C1041.6580906693089,369.8695970237973,991.3479504914638,571.04959047163,971.4744799995492,725.6158164315823C951.6010095076346,880.1820423915345,935.521338793589,974.4915156323939,932.7361083492033,1135.3917295677716C929.9508779048175,1296.2919435031492,950.2191153914351,1520.24905497181,954.7630973332346,1691.0171000438481C959.307079275034,1861.7851451158863,959.1271828888724,2081.8361833406416,960,2160L 1920 2160 L 1920 -1080 Z" fill="url(&quot;#SvgjsLinearGradient1211&quot;)"></path><path d="M1152,-1080C1162.7080845668627,-1001.9223553919417,1211.2934032810383,-785.9086459911146,1216.2485074011765,-611.53413235165C1221.2036115213148,-437.1596187121854,1192.4933853269238,-217.63644010425907,1181.7306247208294,-33.75291816321244C1170.967864114735,150.1306037778342,1148.9713198444788,291.52130513268287,1151.6719437646102,491.76699929462984C1154.3725676847416,692.0126934565768,1195.37431693058,995.2623945492031,1197.9343682416181,1167.7212468084697C1200.4944195526562,1340.1800990677361,1174.6879796711075,1361.1403206516409,1167.032251630838,1526.5201128502292C1159.3765235905682,1691.8999050488176,1154.5053752718063,2054.4200188083714,1152,2160L 1920 2160 L 1920 -1080 Z" fill="url(&quot;#SvgjsLinearGradient1212&quot;)"></path><path d="M1344,-1080C1345.0347637829968,-999.5741042903574,1335.46676082771,-793.8016120022521,1350.2085826979803,-597.444625742144C1364.9504045682506,-401.0876394820359,1437.4299863742845,-87.05247307820417,1432.4509312216226,98.1419175606483C1427.4718760689607,283.33630819950076,1318.2779265720997,358.96207641432864,1320.3342517820092,513.7217180909706C1322.3905769919188,668.4813597676126,1456.210392992063,829.5135214461675,1444.7888824810807,1026.6997676205003C1433.3673719700985,1223.8860137948332,1268.6033357962956,1507.9558230737177,1251.8051887161155,1696.8391951369676C1235.0070416359354,1885.7225672002176,1328.6341981193525,2082.806532522828,1344,2160L 1920 2160 L 1920 -1080 Z" fill="url(&quot;#SvgjsLinearGradient1213&quot;)"></path><path d="M1536,-1080C1538.2940651654412,-970.0515112226959,1562.5809736541298,-643.0817580243416,1549.764390992647,-420.30906733617553C1536.947808331164,-197.53637664800945,1473.245293866132,43.83740977824161,1459.100504031102,256.6361441289965C1444.955714196072,469.4348784797513,1437.65018072069,653.0664485409736,1464.895651982467,856.4833387683536C1492.1411232442438,1059.9002289957336,1610.722606932175,1259.8847086213357,1622.5733316017638,1477.1374854932767C1634.4240562713526,1694.3902623652177,1550.428888600294,2046.1895809155462,1536,2160L 1920 2160 L 1920 -1080 Z" fill="url(&quot;#SvgjsLinearGradient1214&quot;)"></path><path d="M1728,-1080C1739.4043236913906,-944.5581658434796,1788.832034623551,-530.9971376881596,1796.4259421483432,-267.34899506087794C1804.0198496731355,-3.70085243359631,1773.8977160390132,249.0009612369941,1773.5634451487533,501.8888557636896C1773.2291742584935,754.776750290385,1802.0142243315756,973.6265147265767,1794.4203168067834,1249.978372099295C1786.8264092819911,1526.3302294720133,1739.0700528011305,2008.3297286832158,1728,2160L 1920 2160 L 1920 -1080 Z" fill="url(&quot;#SvgjsLinearGradient1215&quot;)"></path></g><defs><linearGradient x1="0.1" y1="0" x2="0" y2="1" id="SvgjsLinearGradient1206"><stop stop-color="#bc50f7" offset="0"></stop><stop stop-color="#a050f7" offset="0"></stop></linearGradient><linearGradient x1="0.1" y1="0" x2="0" y2="1" id="SvgjsLinearGradient1207"><stop stop-color="#c568f8" offset="0"></stop><stop stop-color="#ad68f8" offset="0.1"></stop></linearGradient><linearGradient x1="0.1" y1="0" x2="0" y2="1" id="SvgjsLinearGradient1208"><stop stop-color="#ce7ff9" offset="0"></stop><stop stop-color="#ba7ff9" offset="0.2"></stop></linearGradient><linearGradient x1="0.1" y1="0" x2="0" y2="1" id="SvgjsLinearGradient1209"><stop stop-color="#d797fa" offset="0"></stop><stop stop-color="#c697fa" offset="0.3"></stop></linearGradient><linearGradient x1="0.1" y1="0" x2="0" y2="1" id="SvgjsLinearGradient1210"><stop stop-color="#e0affb" offset="0"></stop><stop stop-color="#d3affb" offset="0.4"></stop></linearGradient><linearGradient x1="0.1" y1="0" x2="0" y2="1" id="SvgjsLinearGradient1211"><stop stop-color="#e9c6fc" offset="0"></stop><stop stop-color="#e0c6fc" offset="0.5"></stop></linearGradient><linearGradient x1="0.1" y1="0" x2="0" y2="1" id="SvgjsLinearGradient1212"><stop stop-color="#f2defd" offset="0"></stop><stop stop-color="#eddefd" offset="0.6"></stop></linearGradient><linearGradient x1="0.1" y1="0" x2="0" y2="1" id="SvgjsLinearGradient1213"><stop stop-color="#fbf6ff" offset="0"></stop><stop stop-color="#f9f6ff" offset="0.7"></stop></linearGradient><linearGradient x1="0.1" y1="0" x2="0" y2="1" id="SvgjsLinearGradient1214"><stop stop-color="#ffffff" offset="0"></stop><stop stop-color="#ffffff" offset="0.8"></stop></linearGradient><linearGradient x1="0.1" y1="0" x2="0" y2="1" id="SvgjsLinearGradient1215"><stop stop-color="#ffffff" offset="0"></stop><stop stop-color="#ffffff" offset="0.9"></stop></linearGradient></defs></svg>